<?xml version="1.0" encoding="UTF-8" standalone="no"?>
<!DOCTYPE svg PUBLIC "-//W3C//DTD SVG 1.1//EN" "http://www.w3.org/Graphics/SVG/1.1/DTD/svg11.dtd">
<svg width="100%" height="100%" viewBox="0 0 1080 1080" version="1.1" xmlns="http://www.w3.org/2000/svg" xmlns:xlink="http://www.w3.org/1999/xlink" xml:space="preserve" xmlns:serif="http://www.serif.com/" style="fill-rule:evenodd;clip-rule:evenodd;stroke-linecap:round;stroke-linejoin:round;stroke-miterlimit:1.5;">
    <g id="Not-Found" serif:id="Not Found">
        <g transform="matrix(0.792593,0,0,0.792593,92.6741,158.459)">
            <path d="M269.823,881.177C286.357,897.711 308.782,907 332.165,907L901.835,907C925.218,907 947.643,897.711 964.177,881.177C980.711,864.643 990,842.218 990,818.835L990,249.165C990,225.782 980.711,203.357 964.177,186.823C964.177,186.823 399.617,751.383 399.617,751.383" style="fill:none;stroke:rgb(240,68,98);stroke-width:68.34px;"/>
        </g>
        <g transform="matrix(-0.792593,0,0,-0.792593,997.326,931.541)">
            <path d="M269.823,881.177C286.357,897.711 308.782,907 332.165,907L901.835,907C925.218,907 947.643,897.711 964.177,881.177C980.711,864.643 990,842.218 990,818.835L990,249.165C990,225.782 980.711,203.357 964.177,186.823C964.177,186.823 399.617,751.383 399.617,751.383" style="fill:none;stroke:rgb(240,68,98);stroke-width:68.34px;"/>
        </g>
        <g transform="matrix(0.792593,0,0,0.792593,597.775,-351.649)">
            <path d="M326.9,830.418L483.19,674.127" style="fill:none;stroke:rgb(240,68,98);stroke-width:68.34px;"/>
        </g>
        <g transform="matrix(-0.792593,0,0,-0.792593,492.225,1441.65)">
            <path d="M326.9,830.418L483.19,674.127" style="fill:none;stroke:rgb(240,68,98);stroke-width:68.34px;"/>
        </g>
        <g transform="matrix(0.965812,0,0,0.965812,18.4615,134.223)">
            <path d="M743.72,302.781C742.641,331.206 739.713,360.052 736.178,379.475C736.178,379.475 774,431 774,489.367C774,600.651 669.148,631 540,631L538.488,630.999C497.844,630.924 459.645,627.815 426.413,620.087" style="fill:none;stroke:rgb(240,68,98);stroke-width:30.2px;"/>
        </g>
        <g transform="matrix(0.965812,0,0,0.965812,18.4615,134.223)">
            <path d="M329.183,565.306C314.329,545.667 306,520.731 306,489.367C306,431 343.822,379.475 343.822,379.475C335,331 329.96,223.833 348,211C366.04,198.167 428,260 452.061,302.479L452.06,302.479C479.211,292.972 508.901,287.733 540,287.733L540.729,287.734C561.225,287.788 581.105,290.118 600.044,294.444" style="fill:none;stroke:rgb(240,68,98);stroke-width:30.2px;"/>
        </g>
        <g transform="matrix(-1.34628,0,0,0.983809,1228.38,216.497)">
            <path d="M423.859,293.928L452.15,332.643C448.941,340.175 444.017,345 438.5,345C428.841,345 421,330.213 421,312C421,305.331 422.051,299.121 423.859,293.928Z" style="fill:rgb(240,68,98);stroke:rgb(240,68,98);stroke-width:24.74px;"/>
        </g>
        <g transform="matrix(-1.34628,0,0,0.983809,1032.32,216.497)">
            <ellipse cx="438.5" cy="312" rx="17.5" ry="33" style="fill:rgb(240,68,98);stroke:rgb(240,68,98);stroke-width:24.74px;"/>
        </g>
        <g transform="matrix(-8.64338e-17,-1.41157,-1.11215,6.80994e-17,886.99,1222.17)">
            <path d="M438.5,279C440.969,279 444.364,279.966 448.05,281.708L423.013,313.486C423.004,312.993 423,312.498 423,312C423,293.787 428.841,279 438.5,279Z" style="fill:rgb(240,68,98);stroke:rgb(240,68,98);stroke-width:22.95px;"/>
        </g>
        <g transform="matrix(0.965812,0,0,0.965812,18.4615,235.708)">
            <path d="M540,418.923C540,465 592,475 616,439" style="fill:none;stroke:rgb(240,68,98);stroke-width:30.2px;"/>
        </g>
        <g transform="matrix(-0.965812,0,0,0.965812,1061.54,235.708)">
            <path d="M540,418.923C540,454.167 570.424,468.304 595.469,456.892" style="fill:none;stroke:rgb(240,68,98);stroke-width:30.2px;"/>
        </g>
        <g transform="matrix(0.965812,2.66091e-08,2.66091e-08,0.677185,18.4615,343.025)">
            <path d="M540,439L540,418.923" style="fill:none;stroke:rgb(240,68,98);stroke-width:34.97px;"/>
        </g>
    </g>
</svg>
