<?xml version="1.0" encoding="UTF-8" standalone="no"?>
<!DOCTYPE svg PUBLIC "-//W3C//DTD SVG 1.1//EN" "http://www.w3.org/Graphics/SVG/1.1/DTD/svg11.dtd">
<svg width="100%" height="100%" viewBox="0 0 1080 1080" version="1.1" xmlns="http://www.w3.org/2000/svg" xmlns:xlink="http://www.w3.org/1999/xlink" xml:space="preserve" xmlns:serif="http://www.serif.com/" style="fill-rule:evenodd;clip-rule:evenodd;stroke-linejoin:round;stroke-miterlimit:2;">
    <g id="Logo" transform="matrix(0.909446,0,0,0.886058,49.7893,-21.1433)">
        <g transform="matrix(1.50065,0,0,1.50065,-363.168,-708.124)">
            <path d="M601.851,1049.58C683.287,985.36 712.07,913.457 703.667,872.852C693.267,822.606 635.993,818.74 601.851,851.173C579.616,806.133 539.707,784.468 502.649,823.237C472.462,854.817 498.658,955.505 581.326,1022.21C493.326,990.21 433.664,912.746 430.244,822.096C427.191,741.194 503.79,667.488 601.851,750.261C717.016,680.601 776.308,742.279 770.607,831.218C765.719,907.477 697.941,1018.84 601.851,1049.58Z" style="fill:white;"/>
        </g>
        <g transform="matrix(0.855556,0,0,0.855556,78,-22)">
            <path d="M249.772,465.321C214.911,466.207 173.88,435.884 149.609,387.834C119.876,328.97 126.482,265.65 164.353,246.521C202.223,227.393 257.108,259.652 286.84,318.516C306.211,356.866 310.158,397.107 300.085,425.783C302.739,407.039 298.767,384.142 287.644,362.122C266.498,320.259 227.465,297.316 200.532,310.92C173.599,324.524 168.901,369.557 190.046,411.42C204.694,440.419 227.925,460.339 249.772,465.321Z" style="fill:white;"/>
        </g>
        <g transform="matrix(0.855556,0,0,0.855556,78,-22)">
            <path d="M788.128,414.561C783.552,385.395 792.919,348.065 815.929,314.244C853.025,259.72 911.621,234.829 946.699,258.694C981.777,282.56 980.139,346.202 943.044,400.727C920.056,434.515 888.811,456.924 860.028,463.4C877.607,455.32 895.191,440.352 908.955,420.12C937.709,377.856 938.979,328.525 911.788,310.026C884.598,291.527 839.178,310.821 810.424,353.085C796.639,373.346 789.171,395.231 788.128,414.561Z" style="fill:white;"/>
        </g>
        <g transform="matrix(0.855556,0,0,0.855556,78,-22)">
            <path d="M391.073,352.106C358.416,331.621 332.823,284.863 327.46,228.565C319.933,149.539 355.098,81.449 405.939,76.605C456.78,71.762 504.169,131.989 511.697,211.015C516.445,260.865 504.206,306.363 481.756,334.384C492.781,313.41 498.173,285.184 495.282,254.837C489.56,194.768 453.539,148.989 414.894,152.67C376.248,156.351 349.519,208.108 355.241,268.177C358.601,303.456 372.413,333.806 391.073,352.106Z" style="fill:white;"/>
        </g>
        <g transform="matrix(0.855556,0,0,0.855556,78,-22)">
            <path d="M611.53,346.395C590.317,320.111 579.325,276.658 585.024,229.372C593.825,156.366 639.102,101.69 686.071,107.352C733.04,113.013 764.028,176.882 755.228,249.888C749.646,296.196 729.388,335.129 703.333,355.965C718.744,338.374 730.209,312.159 733.843,282.008C740.835,224.004 716.215,173.26 678.898,168.762C641.581,164.263 605.607,207.704 598.616,265.708C594.887,296.642 600.149,325.51 611.53,346.395Z" style="fill:white;"/>
        </g>
    </g>
    <g transform="matrix(1,0,0,1,111.824,1000.48)">
        <g transform="matrix(300,0,0,300,0,0)">
            <path d="M-0.004,-0.42C-0.003,-0.457 0.005,-0.49 0.021,-0.519C0.037,-0.548 0.058,-0.574 0.085,-0.597C0.111,-0.619 0.141,-0.638 0.174,-0.654C0.208,-0.669 0.243,-0.682 0.279,-0.692C0.315,-0.701 0.351,-0.708 0.386,-0.713C0.421,-0.718 0.454,-0.72 0.483,-0.72C0.514,-0.72 0.546,-0.718 0.579,-0.713C0.612,-0.708 0.644,-0.701 0.675,-0.692C0.706,-0.682 0.734,-0.669 0.76,-0.654C0.787,-0.638 0.808,-0.619 0.825,-0.597C0.842,-0.574 0.853,-0.548 0.858,-0.519C0.863,-0.489 0.859,-0.455 0.848,-0.417C0.837,-0.381 0.817,-0.348 0.79,-0.319C0.763,-0.29 0.731,-0.264 0.695,-0.243C0.659,-0.221 0.621,-0.203 0.58,-0.189C0.539,-0.175 0.499,-0.166 0.46,-0.161C0.421,-0.156 0.384,-0.156 0.351,-0.161C0.318,-0.165 0.291,-0.174 0.271,-0.189C0.263,-0.172 0.255,-0.154 0.246,-0.136C0.237,-0.118 0.229,-0.099 0.221,-0.078C0.212,-0.057 0.204,-0.034 0.196,-0.009C0.187,0.016 0.179,0.043 0.172,0.073C0.171,0.077 0.169,0.081 0.168,0.085C0.167,0.09 0.165,0.093 0.163,0.096C0.161,0.099 0.159,0.1 0.156,0.099C0.153,0.099 0.151,0.096 0.148,0.09C0.139,0.073 0.133,0.05 0.132,0.023C0.131,-0.004 0.132,-0.033 0.137,-0.063C0.141,-0.093 0.147,-0.122 0.156,-0.151C0.165,-0.18 0.174,-0.205 0.185,-0.226C0.188,-0.23 0.19,-0.234 0.191,-0.238C0.192,-0.242 0.191,-0.246 0.187,-0.249C0.162,-0.247 0.139,-0.25 0.117,-0.259C0.095,-0.268 0.075,-0.28 0.058,-0.296C0.041,-0.312 0.027,-0.331 0.016,-0.353C0.005,-0.374 -0.002,-0.397 -0.004,-0.42ZM0.682,-0.365C0.718,-0.396 0.743,-0.426 0.757,-0.453C0.771,-0.48 0.777,-0.504 0.774,-0.526C0.771,-0.548 0.76,-0.568 0.743,-0.585C0.726,-0.602 0.704,-0.616 0.679,-0.627C0.653,-0.638 0.624,-0.647 0.592,-0.652C0.559,-0.657 0.527,-0.658 0.494,-0.657C0.452,-0.655 0.409,-0.649 0.367,-0.64C0.324,-0.63 0.284,-0.617 0.249,-0.6C0.213,-0.583 0.183,-0.562 0.158,-0.537C0.133,-0.511 0.117,-0.483 0.111,-0.45C0.106,-0.422 0.11,-0.394 0.125,-0.365C0.139,-0.336 0.166,-0.311 0.205,-0.289C0.222,-0.328 0.235,-0.359 0.246,-0.382C0.257,-0.405 0.265,-0.423 0.271,-0.436C0.277,-0.449 0.281,-0.458 0.284,-0.464C0.288,-0.47 0.29,-0.475 0.293,-0.48C0.299,-0.489 0.308,-0.492 0.319,-0.489C0.33,-0.486 0.34,-0.481 0.349,-0.471C0.359,-0.463 0.367,-0.452 0.372,-0.439C0.377,-0.426 0.377,-0.413 0.372,-0.401C0.365,-0.385 0.358,-0.371 0.351,-0.358C0.344,-0.344 0.338,-0.332 0.332,-0.32C0.326,-0.307 0.32,-0.295 0.313,-0.281C0.306,-0.269 0.299,-0.254 0.292,-0.238C0.319,-0.239 0.349,-0.242 0.385,-0.247C0.42,-0.252 0.455,-0.26 0.491,-0.271C0.527,-0.281 0.562,-0.294 0.595,-0.31C0.628,-0.325 0.657,-0.344 0.682,-0.365Z" style="fill:white;fill-rule:nonzero;"/>
        </g>
        <g transform="matrix(300,0,0,300,255,0)">
            <path d="M-0.027,-0.089C-0.028,-0.114 -0.026,-0.141 -0.019,-0.168C-0.012,-0.195 -0.002,-0.221 0.011,-0.244C0.024,-0.267 0.041,-0.285 0.062,-0.3C0.082,-0.315 0.106,-0.322 0.133,-0.323C0.147,-0.32 0.158,-0.313 0.166,-0.302C0.173,-0.291 0.175,-0.278 0.172,-0.263C0.169,-0.248 0.166,-0.236 0.161,-0.226C0.156,-0.215 0.147,-0.204 0.135,-0.193C0.129,-0.188 0.121,-0.181 0.11,-0.172C0.099,-0.163 0.089,-0.154 0.079,-0.145C0.069,-0.136 0.06,-0.126 0.053,-0.117C0.046,-0.107 0.042,-0.099 0.042,-0.092C0.04,-0.075 0.043,-0.064 0.05,-0.059C0.057,-0.054 0.067,-0.051 0.079,-0.053C0.09,-0.054 0.102,-0.057 0.114,-0.062C0.126,-0.067 0.136,-0.072 0.143,-0.076C0.152,-0.082 0.161,-0.09 0.172,-0.099C0.183,-0.108 0.193,-0.117 0.204,-0.127C0.215,-0.137 0.225,-0.147 0.235,-0.156C0.245,-0.165 0.253,-0.173 0.26,-0.179C0.265,-0.184 0.27,-0.189 0.275,-0.194C0.279,-0.199 0.284,-0.203 0.29,-0.206C0.295,-0.207 0.3,-0.208 0.303,-0.207C0.306,-0.206 0.305,-0.201 0.301,-0.192C0.296,-0.181 0.289,-0.17 0.281,-0.16C0.274,-0.15 0.266,-0.14 0.257,-0.13C0.245,-0.117 0.232,-0.103 0.219,-0.088C0.205,-0.073 0.191,-0.06 0.175,-0.048C0.161,-0.035 0.145,-0.025 0.129,-0.016C0.112,-0.007 0.095,-0.001 0.078,0.002C0.047,0.004 0.022,-0.002 0.003,-0.017C-0.017,-0.032 -0.027,-0.056 -0.027,-0.089ZM0.133,-0.277C0.115,-0.27 0.101,-0.262 0.091,-0.251C0.08,-0.24 0.073,-0.225 0.068,-0.204C0.083,-0.215 0.096,-0.226 0.108,-0.236C0.119,-0.248 0.128,-0.261 0.133,-0.277Z" style="fill:white;fill-rule:nonzero;"/>
        </g>
        <g transform="matrix(300,0,0,300,334.8,0)">
            <path d="M0.026,0.076C0.03,0.089 0.038,0.093 0.051,0.088C0.063,0.083 0.077,0.073 0.094,0.058C0.11,0.043 0.127,0.024 0.145,0.002C0.163,-0.02 0.18,-0.042 0.197,-0.063C0.213,-0.084 0.227,-0.104 0.239,-0.121C0.251,-0.138 0.259,-0.15 0.263,-0.155C0.266,-0.16 0.27,-0.165 0.275,-0.17C0.279,-0.175 0.284,-0.18 0.291,-0.185C0.294,-0.187 0.297,-0.189 0.301,-0.192C0.304,-0.194 0.307,-0.195 0.31,-0.195C0.313,-0.194 0.314,-0.192 0.314,-0.188C0.313,-0.184 0.311,-0.177 0.306,-0.168C0.302,-0.16 0.296,-0.148 0.287,-0.132C0.278,-0.115 0.268,-0.097 0.255,-0.077C0.242,-0.056 0.228,-0.035 0.213,-0.014C0.198,0.008 0.181,0.028 0.164,0.047C0.146,0.066 0.128,0.082 0.11,0.096C0.091,0.11 0.073,0.119 0.054,0.123C0.037,0.127 0.022,0.129 0.008,0.129C-0.006,0.13 -0.018,0.125 -0.029,0.114C-0.039,0.104 -0.045,0.09 -0.046,0.071C-0.047,0.052 -0.046,0.032 -0.043,0.011C-0.04,-0.01 -0.036,-0.03 -0.031,-0.05C-0.026,-0.069 -0.021,-0.084 -0.018,-0.095C-0.007,-0.13 0.003,-0.164 0.013,-0.198C0.022,-0.231 0.032,-0.265 0.041,-0.299C0.051,-0.329 0.06,-0.36 0.069,-0.392C0.077,-0.423 0.085,-0.452 0.094,-0.477C0.081,-0.478 0.067,-0.478 0.053,-0.478C0.039,-0.479 0.025,-0.479 0.011,-0.48C-0.003,-0.48 -0.017,-0.481 -0.03,-0.482C-0.044,-0.483 -0.057,-0.486 -0.069,-0.489C-0.08,-0.492 -0.087,-0.496 -0.092,-0.502C-0.097,-0.508 -0.1,-0.514 -0.099,-0.52C-0.099,-0.526 -0.096,-0.531 -0.089,-0.536C-0.083,-0.54 -0.074,-0.542 -0.062,-0.542C-0.055,-0.542 -0.043,-0.541 -0.026,-0.54C-0.009,-0.539 0.008,-0.538 0.027,-0.537C0.045,-0.536 0.062,-0.536 0.078,-0.537C0.093,-0.537 0.103,-0.538 0.108,-0.54C0.11,-0.541 0.111,-0.542 0.111,-0.543C0.115,-0.555 0.119,-0.568 0.124,-0.581C0.129,-0.594 0.133,-0.607 0.138,-0.62C0.143,-0.633 0.147,-0.645 0.152,-0.656C0.156,-0.667 0.16,-0.677 0.163,-0.685C0.166,-0.691 0.171,-0.694 0.18,-0.693C0.188,-0.692 0.197,-0.689 0.205,-0.684C0.215,-0.679 0.222,-0.674 0.229,-0.667C0.236,-0.66 0.239,-0.653 0.238,-0.647C0.236,-0.63 0.231,-0.613 0.224,-0.596C0.217,-0.579 0.21,-0.56 0.205,-0.539C0.247,-0.54 0.283,-0.54 0.314,-0.541C0.344,-0.541 0.373,-0.541 0.402,-0.541C0.411,-0.541 0.421,-0.541 0.43,-0.541C0.439,-0.54 0.447,-0.539 0.452,-0.538C0.457,-0.537 0.458,-0.535 0.455,-0.533C0.452,-0.53 0.444,-0.527 0.429,-0.523C0.387,-0.51 0.346,-0.5 0.307,-0.493C0.268,-0.486 0.229,-0.48 0.191,-0.477C0.188,-0.476 0.186,-0.476 0.187,-0.475C0.187,-0.474 0.186,-0.472 0.184,-0.469C0.184,-0.468 0.184,-0.468 0.183,-0.467C0.182,-0.466 0.182,-0.466 0.182,-0.465C0.171,-0.436 0.16,-0.403 0.147,-0.366C0.134,-0.329 0.122,-0.292 0.109,-0.253C0.096,-0.214 0.084,-0.176 0.073,-0.139C0.062,-0.102 0.052,-0.068 0.044,-0.038C0.036,-0.007 0.03,0.018 0.027,0.038C0.023,0.059 0.023,0.071 0.026,0.076Z" style="fill:white;fill-rule:nonzero;"/>
        </g>
        <g transform="matrix(300,0,0,300,416.4,0)">
            <path d="M0.042,0.024C0.045,0.031 0.05,0.034 0.056,0.034C0.061,0.035 0.067,0.033 0.072,0.03C0.092,0.013 0.111,-0.006 0.129,-0.026C0.147,-0.046 0.164,-0.066 0.181,-0.086C0.197,-0.106 0.213,-0.126 0.229,-0.145C0.244,-0.164 0.259,-0.181 0.274,-0.196C0.279,-0.201 0.283,-0.203 0.286,-0.2C0.29,-0.197 0.29,-0.192 0.288,-0.186C0.279,-0.171 0.269,-0.156 0.26,-0.141C0.251,-0.127 0.241,-0.113 0.231,-0.098C0.21,-0.069 0.189,-0.037 0.168,-0.004C0.146,0.029 0.122,0.058 0.096,0.081C0.08,0.096 0.063,0.104 0.044,0.106C0.027,0.105 0.01,0.1 -0.005,0.089C-0.02,0.079 -0.029,0.065 -0.032,0.048C-0.036,0.007 -0.035,-0.034 -0.03,-0.075C-0.024,-0.123 -0.014,-0.173 -0.001,-0.224C0.012,-0.275 0.029,-0.326 0.048,-0.377C0.067,-0.428 0.087,-0.477 0.11,-0.525C0.133,-0.573 0.156,-0.618 0.181,-0.659C0.192,-0.677 0.204,-0.694 0.215,-0.711C0.226,-0.727 0.238,-0.742 0.251,-0.756C0.256,-0.762 0.262,-0.766 0.269,-0.769C0.276,-0.772 0.283,-0.771 0.29,-0.768C0.305,-0.761 0.311,-0.749 0.309,-0.731C0.304,-0.692 0.296,-0.653 0.284,-0.616C0.273,-0.579 0.259,-0.543 0.242,-0.508C0.225,-0.473 0.207,-0.44 0.186,-0.408C0.165,-0.376 0.143,-0.346 0.12,-0.317C0.118,-0.315 0.117,-0.313 0.116,-0.31C0.115,-0.307 0.113,-0.305 0.112,-0.302C0.102,-0.275 0.092,-0.246 0.083,-0.214C0.073,-0.182 0.065,-0.151 0.058,-0.121C0.051,-0.09 0.046,-0.062 0.043,-0.036C0.04,-0.01 0.039,0.01 0.042,0.024ZM0.288,-0.684C0.259,-0.636 0.234,-0.587 0.211,-0.536C0.188,-0.485 0.166,-0.435 0.143,-0.384C0.149,-0.39 0.157,-0.4 0.166,-0.414C0.174,-0.429 0.184,-0.445 0.194,-0.464C0.204,-0.482 0.214,-0.502 0.224,-0.523C0.234,-0.544 0.243,-0.565 0.252,-0.585C0.261,-0.605 0.268,-0.624 0.275,-0.642C0.282,-0.659 0.286,-0.673 0.288,-0.684Z" style="fill:white;fill-rule:nonzero;"/>
        </g>
        <g transform="matrix(300,0,0,300,494.7,0)">
            <path d="M0.21,-0.197C0.218,-0.198 0.227,-0.2 0.236,-0.203C0.245,-0.206 0.254,-0.209 0.262,-0.211C0.271,-0.214 0.281,-0.217 0.292,-0.221C0.302,-0.224 0.312,-0.227 0.321,-0.229C0.328,-0.229 0.33,-0.227 0.329,-0.224C0.328,-0.22 0.325,-0.216 0.32,-0.211C0.315,-0.205 0.309,-0.201 0.303,-0.196C0.296,-0.191 0.291,-0.188 0.288,-0.186C0.272,-0.179 0.256,-0.173 0.241,-0.169C0.225,-0.165 0.21,-0.159 0.196,-0.152C0.19,-0.141 0.182,-0.127 0.171,-0.11C0.16,-0.092 0.149,-0.075 0.136,-0.058C0.123,-0.041 0.109,-0.027 0.095,-0.015C0.08,-0.003 0.066,0.003 0.053,0.003C0.034,0.003 0.018,-0.002 0.005,-0.013C-0.005,-0.02 -0.012,-0.03 -0.017,-0.044C-0.022,-0.058 -0.025,-0.073 -0.026,-0.09C-0.027,-0.106 -0.027,-0.122 -0.025,-0.138C-0.023,-0.153 -0.021,-0.166 -0.018,-0.176C-0.017,-0.181 -0.016,-0.184 -0.015,-0.186C-0.014,-0.187 -0.012,-0.188 -0.011,-0.189C-0.01,-0.19 -0.008,-0.19 -0.006,-0.191C-0.005,-0.192 -0.003,-0.193 -0.002,-0.195C0,-0.202 0.002,-0.21 0.004,-0.218C0.006,-0.226 0.009,-0.233 0.013,-0.24C0.024,-0.26 0.039,-0.279 0.057,-0.296C0.074,-0.313 0.095,-0.322 0.118,-0.325C0.133,-0.328 0.146,-0.327 0.159,-0.323C0.171,-0.319 0.182,-0.311 0.191,-0.3C0.199,-0.291 0.205,-0.282 0.208,-0.272C0.211,-0.261 0.213,-0.251 0.214,-0.242C0.215,-0.232 0.214,-0.223 0.213,-0.215C0.212,-0.207 0.211,-0.201 0.21,-0.197ZM0.153,-0.187C0.154,-0.187 0.156,-0.188 0.157,-0.189C0.158,-0.19 0.159,-0.192 0.159,-0.193C0.164,-0.206 0.167,-0.22 0.167,-0.235C0.166,-0.25 0.161,-0.263 0.152,-0.272C0.147,-0.277 0.141,-0.28 0.134,-0.281C0.127,-0.282 0.12,-0.28 0.113,-0.277C0.1,-0.269 0.089,-0.26 0.081,-0.249C0.073,-0.238 0.065,-0.227 0.058,-0.216C0.058,-0.213 0.059,-0.21 0.06,-0.209C0.067,-0.203 0.07,-0.196 0.069,-0.189C0.069,-0.186 0.073,-0.184 0.081,-0.183C0.088,-0.182 0.097,-0.182 0.107,-0.183C0.116,-0.183 0.126,-0.184 0.135,-0.185C0.143,-0.186 0.15,-0.187 0.153,-0.187ZM0.064,-0.033C0.071,-0.034 0.078,-0.039 0.086,-0.048C0.095,-0.056 0.103,-0.065 0.111,-0.076C0.118,-0.087 0.125,-0.098 0.131,-0.109C0.136,-0.119 0.14,-0.129 0.142,-0.136C0.129,-0.135 0.114,-0.134 0.099,-0.134C0.084,-0.134 0.069,-0.135 0.056,-0.138C0.054,-0.132 0.053,-0.124 0.052,-0.115C0.051,-0.105 0.051,-0.095 0.052,-0.085C0.053,-0.074 0.054,-0.064 0.056,-0.055C0.058,-0.046 0.061,-0.038 0.064,-0.033Z" style="fill:white;fill-rule:nonzero;"/>
        </g>
        <g transform="matrix(300,0,0,300,583.8,0)">
            <path d="M0.068,-0.083C0.074,-0.078 0.08,-0.08 0.086,-0.086C0.092,-0.094 0.098,-0.104 0.105,-0.118C0.111,-0.133 0.117,-0.15 0.123,-0.17C0.129,-0.189 0.136,-0.209 0.142,-0.229C0.15,-0.248 0.157,-0.267 0.165,-0.285C0.172,-0.304 0.181,-0.319 0.19,-0.331C0.193,-0.337 0.199,-0.342 0.206,-0.346C0.214,-0.35 0.221,-0.351 0.227,-0.348C0.232,-0.347 0.237,-0.343 0.24,-0.338C0.243,-0.333 0.244,-0.327 0.243,-0.321L0.243,-0.309C0.243,-0.304 0.244,-0.299 0.245,-0.294C0.249,-0.279 0.257,-0.267 0.268,-0.259C0.279,-0.251 0.292,-0.245 0.307,-0.242C0.321,-0.239 0.336,-0.237 0.35,-0.238C0.366,-0.239 0.379,-0.242 0.391,-0.245C0.393,-0.245 0.396,-0.245 0.399,-0.246C0.402,-0.247 0.404,-0.247 0.406,-0.247C0.409,-0.246 0.41,-0.245 0.411,-0.244C0.412,-0.243 0.41,-0.24 0.407,-0.237C0.394,-0.224 0.38,-0.214 0.365,-0.209C0.349,-0.203 0.333,-0.201 0.317,-0.202C0.301,-0.203 0.285,-0.207 0.27,-0.214C0.255,-0.221 0.241,-0.231 0.229,-0.243C0.223,-0.23 0.215,-0.213 0.205,-0.191C0.195,-0.168 0.184,-0.145 0.172,-0.122C0.159,-0.099 0.146,-0.078 0.132,-0.059C0.118,-0.04 0.104,-0.027 0.089,-0.022C0.071,-0.016 0.056,-0.017 0.044,-0.024C0.032,-0.031 0.022,-0.041 0.015,-0.054C0.008,-0.067 0.003,-0.082 -0,-0.099C-0.003,-0.116 -0.005,-0.13 -0.005,-0.142L-0.005,-0.188C-0.005,-0.198 -0.005,-0.207 -0.004,-0.217C-0.003,-0.226 -0.002,-0.235 -0.001,-0.245C-0.001,-0.252 -0.001,-0.26 0,-0.267C0.001,-0.274 0.002,-0.282 0.003,-0.29C0.003,-0.293 0.004,-0.296 0.006,-0.298C0.007,-0.299 0.009,-0.299 0.012,-0.298C0.031,-0.295 0.046,-0.286 0.055,-0.272C0.064,-0.258 0.069,-0.242 0.069,-0.225C0.069,-0.215 0.068,-0.204 0.067,-0.191C0.066,-0.178 0.065,-0.165 0.064,-0.152C0.063,-0.139 0.062,-0.126 0.062,-0.115C0.062,-0.103 0.063,-0.093 0.066,-0.085C0.066,-0.084 0.066,-0.083 0.067,-0.083L0.068,-0.083Z" style="fill:white;fill-rule:nonzero;"/>
        </g>
        <g transform="matrix(300,0,0,300,693.9,0)">
            <path d="M-0.027,-0.089C-0.028,-0.114 -0.026,-0.141 -0.019,-0.168C-0.012,-0.195 -0.002,-0.221 0.011,-0.244C0.024,-0.267 0.041,-0.285 0.062,-0.3C0.082,-0.315 0.106,-0.322 0.133,-0.323C0.147,-0.32 0.158,-0.313 0.166,-0.302C0.173,-0.291 0.175,-0.278 0.172,-0.263C0.169,-0.248 0.166,-0.236 0.161,-0.226C0.156,-0.215 0.147,-0.204 0.135,-0.193C0.129,-0.188 0.121,-0.181 0.11,-0.172C0.099,-0.163 0.089,-0.154 0.079,-0.145C0.069,-0.136 0.06,-0.126 0.053,-0.117C0.046,-0.107 0.042,-0.099 0.042,-0.092C0.04,-0.075 0.043,-0.064 0.05,-0.059C0.057,-0.054 0.067,-0.051 0.079,-0.053C0.09,-0.054 0.102,-0.057 0.114,-0.062C0.126,-0.067 0.136,-0.072 0.143,-0.076C0.152,-0.082 0.161,-0.09 0.172,-0.099C0.183,-0.108 0.193,-0.117 0.204,-0.127C0.215,-0.137 0.225,-0.147 0.235,-0.156C0.245,-0.165 0.253,-0.173 0.26,-0.179C0.265,-0.184 0.27,-0.189 0.275,-0.194C0.279,-0.199 0.284,-0.203 0.29,-0.206C0.295,-0.207 0.3,-0.208 0.303,-0.207C0.306,-0.206 0.305,-0.201 0.301,-0.192C0.296,-0.181 0.289,-0.17 0.281,-0.16C0.274,-0.15 0.266,-0.14 0.257,-0.13C0.245,-0.117 0.232,-0.103 0.219,-0.088C0.205,-0.073 0.191,-0.06 0.175,-0.048C0.161,-0.035 0.145,-0.025 0.129,-0.016C0.112,-0.007 0.095,-0.001 0.078,0.002C0.047,0.004 0.022,-0.002 0.003,-0.017C-0.017,-0.032 -0.027,-0.056 -0.027,-0.089ZM0.133,-0.277C0.115,-0.27 0.101,-0.262 0.091,-0.251C0.08,-0.24 0.073,-0.225 0.068,-0.204C0.083,-0.215 0.096,-0.226 0.108,-0.236C0.119,-0.248 0.128,-0.261 0.133,-0.277Z" style="fill:white;fill-rule:nonzero;"/>
        </g>
        <g transform="matrix(300,0,0,300,773.7,0)">
            <path d="M0.241,-0.287C0.216,-0.276 0.192,-0.259 0.171,-0.236C0.15,-0.214 0.13,-0.189 0.111,-0.162C0.092,-0.135 0.073,-0.106 0.055,-0.077C0.037,-0.048 0.019,-0.02 0.001,0.005C-0.004,0.011 -0.011,0.013 -0.018,0.01C-0.025,0.007 -0.03,0.002 -0.032,-0.006C-0.034,-0.013 -0.033,-0.021 -0.03,-0.03C-0.025,-0.046 -0.021,-0.064 -0.016,-0.084C-0.012,-0.104 -0.008,-0.125 -0.004,-0.147C0,-0.169 0.004,-0.191 0.009,-0.213C0.013,-0.235 0.017,-0.256 0.022,-0.276C0.023,-0.281 0.027,-0.285 0.032,-0.289C0.037,-0.292 0.042,-0.293 0.048,-0.294C0.054,-0.294 0.059,-0.293 0.064,-0.29C0.069,-0.287 0.072,-0.283 0.073,-0.278C0.076,-0.265 0.075,-0.249 0.07,-0.23C0.066,-0.211 0.061,-0.193 0.056,-0.175C0.068,-0.19 0.081,-0.207 0.096,-0.227C0.11,-0.246 0.126,-0.265 0.142,-0.281C0.16,-0.299 0.178,-0.313 0.197,-0.324C0.216,-0.335 0.235,-0.339 0.256,-0.337C0.267,-0.334 0.275,-0.328 0.281,-0.321C0.288,-0.313 0.293,-0.304 0.296,-0.295C0.299,-0.285 0.301,-0.275 0.302,-0.266C0.302,-0.257 0.301,-0.249 0.299,-0.242C0.294,-0.233 0.289,-0.223 0.282,-0.212C0.276,-0.201 0.271,-0.189 0.268,-0.178C0.264,-0.167 0.262,-0.156 0.263,-0.145C0.264,-0.134 0.269,-0.124 0.279,-0.115C0.283,-0.11 0.283,-0.106 0.278,-0.103C0.273,-0.1 0.267,-0.099 0.259,-0.099C0.251,-0.098 0.243,-0.099 0.235,-0.101C0.227,-0.103 0.221,-0.106 0.218,-0.11C0.207,-0.125 0.201,-0.14 0.199,-0.155C0.196,-0.17 0.197,-0.185 0.2,-0.2C0.203,-0.215 0.209,-0.23 0.216,-0.245C0.223,-0.26 0.232,-0.274 0.241,-0.287Z" style="fill:white;fill-rule:nonzero;"/>
        </g>
    </g>
</svg>
