<?xml version="1.0" encoding="UTF-8" standalone="no"?>
<!DOCTYPE svg PUBLIC "-//W3C//DTD SVG 1.1//EN" "http://www.w3.org/Graphics/SVG/1.1/DTD/svg11.dtd">
<svg width="100%" height="100%" viewBox="0 0 1080 1080" version="1.1" xmlns="http://www.w3.org/2000/svg" xmlns:xlink="http://www.w3.org/1999/xlink" xml:space="preserve" xmlns:serif="http://www.serif.com/" style="fill-rule:evenodd;clip-rule:evenodd;stroke-linejoin:round;stroke-miterlimit:2;">
    <g id="Logo" transform="matrix(0.909446,0,0,0.886058,49.7893,-21.1433)">
        <g transform="matrix(1.50065,0,0,1.50065,-363.168,-708.124)">
            <path d="M601.851,1049.58C683.287,985.36 712.07,913.457 703.667,872.852C693.267,822.606 635.993,818.74 601.851,851.173C579.616,806.133 539.707,784.468 502.649,823.237C472.462,854.817 498.658,955.505 581.326,1022.21C493.326,990.21 433.664,912.746 430.244,822.096C427.191,741.194 503.79,667.488 601.851,750.261C717.016,680.601 776.308,742.279 770.607,831.218C765.719,907.477 697.941,1018.84 601.851,1049.58Z" style="fill:white;"/>
        </g>
        <g transform="matrix(0.855556,0,0,0.855556,78,-22)">
            <path d="M249.772,465.321C214.911,466.207 173.88,435.884 149.609,387.834C119.876,328.97 126.482,265.65 164.353,246.521C202.223,227.393 257.108,259.652 286.84,318.516C306.211,356.866 310.158,397.107 300.085,425.783C302.739,407.039 298.767,384.142 287.644,362.122C266.498,320.259 227.465,297.316 200.532,310.92C173.599,324.524 168.901,369.557 190.046,411.42C204.694,440.419 227.925,460.339 249.772,465.321Z" style="fill:white;"/>
        </g>
        <g transform="matrix(0.855556,0,0,0.855556,78,-22)">
            <path d="M788.128,414.561C783.552,385.395 792.919,348.065 815.929,314.244C853.025,259.72 911.621,234.829 946.699,258.694C981.777,282.56 980.139,346.202 943.044,400.727C920.056,434.515 888.811,456.924 860.028,463.4C877.607,455.32 895.191,440.352 908.955,420.12C937.709,377.856 938.979,328.525 911.788,310.026C884.598,291.527 839.178,310.821 810.424,353.085C796.639,373.346 789.171,395.231 788.128,414.561Z" style="fill:white;"/>
        </g>
        <g transform="matrix(0.855556,0,0,0.855556,78,-22)">
            <path d="M391.073,352.106C358.416,331.621 332.823,284.863 327.46,228.565C319.933,149.539 355.098,81.449 405.939,76.605C456.78,71.762 504.169,131.989 511.697,211.015C516.445,260.865 504.206,306.363 481.756,334.384C492.781,313.41 498.173,285.184 495.282,254.837C489.56,194.768 453.539,148.989 414.894,152.67C376.248,156.351 349.519,208.108 355.241,268.177C358.601,303.456 372.413,333.806 391.073,352.106Z" style="fill:white;"/>
        </g>
        <g transform="matrix(0.855556,0,0,0.855556,78,-22)">
            <path d="M611.53,346.395C590.317,320.111 579.325,276.658 585.024,229.372C593.825,156.366 639.102,101.69 686.071,107.352C733.04,113.013 764.028,176.882 755.228,249.888C749.646,296.196 729.388,335.129 703.333,355.965C718.744,338.374 730.209,312.159 733.843,282.008C740.835,224.004 716.215,173.26 678.898,168.762C641.581,164.263 605.607,207.704 598.616,265.708C594.887,296.642 600.149,325.51 611.53,346.395Z" style="fill:white;"/>
        </g>
    </g>
    <g transform="matrix(1,0,0,1,3.01604,20.1698)">
        <text x="108.808px" y="980.308px" style="font-family:'Tahu!';font-size:300px;fill:white;">Petlover</text>
    </g>
</svg>
